<svg width="221" height="182" viewBox="0 0 221 182" fill="none" xmlns="http://www.w3.org/2000/svg">
<ellipse cx="110.103" cy="90.7032" rx="100" ry="47" transform="rotate(-30 110.103 90.7032)" fill="#001F60"/>
<path d="M66.1459 101.321L74.9144 96.2583C76.4874 95.3501 77.9597 94.818 79.3311 94.6622C80.6967 94.4962 81.8996 94.6813 82.9399 95.2174C83.9844 95.7375 84.8348 96.5658 85.491 97.7025C85.9715 98.5347 86.2267 99.3752 86.2566 100.224C86.2967 101.067 86.1404 101.874 85.7877 102.646C85.4393 103.402 84.9242 104.092 84.2424 104.716L84.3654 104.929C85.2312 104.483 86.1634 104.27 87.1621 104.288C88.1608 104.307 89.1148 104.589 90.0243 105.132C90.9278 105.666 91.6843 106.461 92.2937 107.516C92.9734 108.694 93.2877 109.906 93.2365 111.153C93.1854 112.401 92.7388 113.619 91.8966 114.809C91.0588 115.983 89.8331 117.036 88.2194 117.967L78.8724 123.364L66.1459 101.321ZM85.1199 114.743C85.9826 114.245 86.6285 113.724 87.0578 113.178C87.4914 112.616 87.7229 112.057 87.7524 111.498C87.776 110.93 87.6238 110.361 87.2956 109.793C86.9441 109.184 86.4805 108.721 85.905 108.404C85.3294 108.087 84.6893 107.962 83.9846 108.031C83.2842 108.083 82.5636 108.324 81.8228 108.751L77.8495 111.045L81.2685 116.967L85.1199 114.743ZM79.5643 105.894C80.2037 105.525 80.7097 105.077 81.0824 104.551C81.4652 104.019 81.6756 103.457 81.7137 102.867C81.7619 102.271 81.619 101.684 81.2851 101.105C80.9687 100.557 80.5693 100.158 80.0871 99.9091C79.599 99.6496 79.0448 99.5569 78.4245 99.6308C77.8084 99.6888 77.1553 99.917 76.4652 100.315L72.8573 102.398L76.0478 107.924L79.5643 105.894ZM85.9968 89.8598L100.794 81.3168L102.973 85.0922L92.7434 90.9984L95.8372 96.357L105.291 90.899L107.462 94.6591L98.0081 100.117L101.111 105.491L111.371 99.567L113.551 103.342L98.7234 111.903L85.9968 89.8598ZM119.929 78.6719C119.529 78.1185 119.051 77.7245 118.496 77.4901C117.951 77.2497 117.343 77.1812 116.672 77.2845C116.001 77.3878 115.285 77.6592 114.524 78.0986C113.783 78.5263 113.2 79.005 112.775 79.5345C112.36 80.0582 112.122 80.5949 112.061 81.1446C111.993 81.6841 112.1 82.1975 112.382 82.6846C112.799 83.4314 113.438 83.8341 114.297 83.8927C115.166 83.9455 116.233 83.7896 117.498 83.425L119.749 82.7543C122.109 82.0141 124.165 81.8356 125.915 82.2188C127.67 82.586 129.062 83.6497 130.091 85.4097C130.859 86.7392 131.19 88.0975 131.084 89.4846C130.978 90.8718 130.441 92.2034 129.473 93.4796C128.505 94.7558 127.133 95.9066 125.357 96.9319C123.581 97.9573 121.875 98.5769 120.239 98.7906C118.614 98.9984 117.133 98.7775 115.797 98.1279C114.456 97.4681 113.311 96.3765 112.364 94.8531L116.809 92.2867C117.286 92.9721 117.856 93.455 118.518 93.7355C119.181 94.016 119.905 94.0985 120.691 93.9831C121.477 93.8677 122.276 93.5756 123.088 93.1069C123.879 92.6498 124.507 92.1318 124.971 91.5526C125.435 90.9735 125.709 90.3821 125.794 89.7785C125.872 89.1648 125.757 88.589 125.446 88.0511C125.165 87.564 124.785 87.235 124.308 87.0641C123.824 86.8831 123.241 86.8341 122.559 86.9171C121.88 86.9841 121.053 87.1571 120.077 87.4362L117.323 88.2552C115.119 88.8914 113.219 89.0213 111.621 88.6447C110.028 88.252 108.777 87.2692 107.869 85.6961C107.113 84.3869 106.8 83.0249 106.93 81.61C107.071 80.1893 107.609 78.8365 108.545 77.5518C109.492 76.2612 110.762 75.1559 112.355 74.236C113.958 73.3102 115.535 72.7719 117.086 72.6211C118.63 72.4602 120.032 72.6858 121.292 73.2979C122.546 73.8999 123.559 74.8446 124.329 76.1319L119.929 78.6719ZM123.111 68.4321L141.165 58.0083L143.345 61.7836L136.586 65.6859L147.133 83.9537L142.612 86.564L132.065 68.2963L125.29 72.2074L123.111 68.4321Z" fill="white"/>
</svg>
