<svg width="70" height="71" viewBox="0 0 70 71" fill="none" xmlns="http://www.w3.org/2000/svg">
<path d="M16.1472 56.242C12.5907 57.8559 8.79624 58.8831 4.91125 59.2834C4.65474 59.3101 4.396 59.2615 4.16664 59.1435C3.93728 59.0256 3.74722 58.8435 3.61965 58.6193C0.74094 53.5459 -0.20535 47.234 0.9634 40.3078C2.45422 31.3695 7.30188 22.4213 14.6165 15.1066C21.9312 7.79199 30.8861 2.94433 39.8177 1.45351C47.3847 0.195113 54.2179 1.45351 59.5038 4.97304C59.7201 5.1151 59.8902 5.31726 59.9932 5.55468C60.0962 5.7921 60.1276 6.05442 60.0835 6.30943C60.0394 6.56443 59.9218 6.801 59.745 6.99006C59.5683 7.17912 59.3402 7.31244 59.0888 7.37363C56.6005 7.96675 54.1745 8.79617 51.8439 9.85058C44.6156 13.1377 35.3751 20.1635 32.4134 34.9853C30.3847 45.0393 24.9161 52.1912 16.1472 56.242ZM66.3802 12.384C66.2529 12.1604 66.0633 11.9786 65.8346 11.8607C65.6059 11.7428 65.3479 11.6939 65.0919 11.7199C61.2054 12.1176 57.4094 13.1448 53.8527 14.7613C45.0837 18.8121 39.6152 25.9641 37.6031 36.0113C34.638 50.8332 25.4009 57.859 18.1726 61.1461C15.842 62.2005 13.416 63.0299 10.9277 63.623C10.6706 63.681 10.4365 63.8142 10.2554 64.0056C10.0742 64.1971 9.95406 64.438 9.91027 64.6979C9.86648 64.9578 9.901 65.2249 10.0095 65.4651C10.1179 65.7053 10.2954 65.9078 10.5193 66.0469C14.4605 68.6766 19.2583 70.0312 24.5808 70.0312C26.4634 70.0257 28.3423 69.8658 30.1988 69.5531C39.1337 68.0623 48.0853 63.2146 55.3999 55.9C62.7146 48.5853 67.5622 39.6305 69.0531 30.6988C70.1952 23.7727 69.2589 17.4574 66.3802 12.384Z" fill="#310D00"/>
</svg>
