<svg width="100" height="100" viewBox="0 0 100 100" fill="none" xmlns="http://www.w3.org/2000/svg">
<rect x="1" y="1" width="98" height="98" rx="49" stroke="#E6E7E8" stroke-width="2"/>
<path d="M51.5 46H60.5L59.5 50H51.5V68H47.5V50H39.5V46H47.5V42.2555C47.5 38.6895 47.8714 37.3963 48.5686 36.0926C49.2658 34.7889 50.289 33.7658 51.5926 33.0685C52.8964 32.3713 54.1894 32 57.7556 32C58.7996 32 59.7144 32.1 60.5 32.3V36H57.7556C55.1082 36 54.302 36.1557 53.479 36.5958C52.8724 36.9202 52.4202 37.3724 52.0958 37.979C51.6556 38.8019 51.5 39.6081 51.5 42.2555V46Z" fill="#E6E7E8"/>
</svg>
