<svg width="100" height="100" viewBox="0 0 100 100" fill="none" xmlns="http://www.w3.org/2000/svg">
<rect x="1" y="1" width="98" height="98" rx="49" stroke="#E6E7E8" stroke-width="2"/>
<path d="M50 44C46.6852 44 44 46.6862 44 50C44 53.3146 46.6862 56 50 56C53.3146 56 56 53.3138 56 50C56 46.6854 53.3138 44 50 44ZM50 40C55.5208 40 60 44.4742 60 50C60 55.521 55.5258 60 50 60C44.479 60 40 55.5258 40 50C40 44.4791 44.4742 40 50 40ZM63 39.4983C63 40.8785 61.8784 41.9983 60.5 41.9983C59.1198 41.9983 58 40.8768 58 39.4983C58 38.1198 59.1214 37 60.5 37C61.8766 36.9983 63 38.1198 63 39.4983ZM50 34C45.051 34 44.2444 34.0131 41.9426 34.1156C40.3743 34.1892 39.3231 34.4001 38.3464 34.7793C37.4784 35.116 36.8522 35.518 36.1851 36.1851C35.5154 36.8548 35.1141 37.4793 34.7788 38.3477C34.3988 39.3266 34.1879 40.3762 34.1156 41.9423C34.0121 44.1504 34 44.9221 34 50C34 54.949 34.0131 55.7556 34.1156 58.0572C34.1892 59.6248 34.4004 60.6776 34.7787 61.652C35.1162 62.5212 35.519 63.1488 36.183 63.8128C36.8553 64.4842 37.4816 64.8868 38.3418 65.2188C39.3304 65.601 40.381 65.8122 41.9423 65.8844C44.1504 65.9878 44.9221 66 50 66C54.949 66 55.7556 65.9868 58.0572 65.8844C59.6214 65.811 60.675 65.5992 61.652 65.2212C62.5188 64.8846 63.1484 64.4804 63.8128 63.817C64.4852 63.1436 64.887 62.5188 65.2194 61.6566C65.6006 60.6716 65.8122 59.6196 65.8844 58.0578C65.9878 55.8496 66 55.0778 66 50C66 45.051 65.9868 44.2444 65.8844 41.9427C65.8108 40.3781 65.599 39.323 65.2206 38.3464C64.8848 37.4808 64.4814 36.8527 63.8148 36.1851C63.144 35.5143 62.5212 35.1139 61.6522 34.7788C60.674 34.3991 59.6228 34.1879 58.0576 34.1156C55.8496 34.0121 55.0778 34 50 34ZM50 30C55.4332 30 56.1116 30.02 58.245 30.12C60.3732 30.2183 61.825 30.555 63.1 31.05C64.4182 31.5583 65.5316 32.245 66.6432 33.3567C67.7532 34.4683 68.44 35.585 68.95 36.9C69.4432 38.1733 69.78 39.6267 69.88 41.755C69.975 43.8883 70 44.5667 70 50C70 55.4334 69.98 56.1116 69.88 58.245C69.7816 60.3734 69.4432 61.825 68.95 63.1C68.4416 64.4184 67.7532 65.5316 66.6432 66.6434C65.5316 67.7534 64.4132 68.44 63.1 68.95C61.825 69.4434 60.3732 69.78 58.245 69.88C56.1116 69.975 55.4332 70 50 70C44.5666 70 43.8883 69.98 41.755 69.88C39.6267 69.7816 38.1767 69.4434 36.9 68.95C35.5833 68.4416 34.4683 67.7534 33.3567 66.6434C32.245 65.5316 31.56 64.4134 31.05 63.1C30.555 61.825 30.22 60.3734 30.12 58.245C30.025 56.1116 30 55.4334 30 50C30 44.5667 30.02 43.8883 30.12 41.755C30.2183 39.625 30.555 38.175 31.05 36.9C31.5583 35.5833 32.245 34.4683 33.3567 33.3567C34.4683 32.245 35.585 31.56 36.9 31.05C38.175 30.555 39.625 30.22 41.755 30.12C43.8883 30.025 44.5666 30 50 30Z" fill="#E6E7E8"/>
</svg>
