<svg width="40" height="40" viewBox="0 0 40 40" fill="none" xmlns="http://www.w3.org/2000/svg">
<path d="M31.5669 28.7822L40 37.2153L37.2153 40L28.7822 31.5669C25.7499 33.9928 21.9044 35.4441 17.722 35.4441C7.93947 35.4441 0 27.5046 0 17.722C0 7.93947 7.93947 0 17.722 0C27.5046 0 35.4441 7.93947 35.4441 17.722C35.4441 21.9044 33.9928 25.7499 31.5669 28.7822ZM27.6162 27.3211C30.0241 24.8396 31.5058 21.4547 31.5058 17.722C31.5058 10.1065 25.3376 3.93823 17.722 3.93823C10.1065 3.93823 3.93823 10.1065 3.93823 17.722C3.93823 25.3376 10.1065 31.5058 17.722 31.5058C21.4547 31.5058 24.8396 30.0241 27.3211 27.6162L27.6162 27.3211Z" fill="#001F60"/>
</svg>
